HIERARCHY
ROOT Hips
{
  OFFSET 8.156 11.119 -272.157
  CHANNELS 6 Xposition Yposition Zposition Zrotation Xrotation Yrotation
  JOINT LeftHip
  {
    OFFSET 10.445 0.000 0.000
    CHANNELS 3 Zrotation Xrotation Yrotation
    JOINT LeftKnee
    {
      OFFSET -0.000 -45.262 0.000
      CHANNELS 3 Zrotation Xrotation Yrotation
      JOINT LeftAnkle
      {
        OFFSET 0.000 -28.289 0.000
        CHANNELS 3 Zrotation Xrotation Yrotation
        End Site
        {
          OFFSET 0.000 0.000 15.233
        }
      }
    }
  }
  JOINT RightHip
  {
    OFFSET -10.445 0.000 0.000
    CHANNELS 3 Zrotation Xrotation Yrotation
    JOINT RightKnee
    {
      OFFSET -0.000 -45.262 -0.000
      CHANNELS 3 Zrotation Xrotation Yrotation
      JOINT RightAnkle
      {
        OFFSET -0.000 -28.289 -0.000
        CHANNELS 3 Zrotation Xrotation Yrotation
        End Site
        {
          OFFSET -0.000 -0.000 15.233
        }
      }
    }
  }
  JOINT Chest
  {
    OFFSET 0.000 22.631 0.000
    CHANNELS 3 Zrotation Xrotation Yrotation
    JOINT LeftCollar
    {
      OFFSET 0 22.595 0
      CHANNELS 3 Zrotation Xrotation Yrotation
      JOINT LeftShoulder
      {
        OFFSET 17.171 0.000 2.460
        CHANNELS 3 Zrotation Xrotation Yrotation
        JOINT LeftElbow
        {
          OFFSET -0.000 -24.182 0.000
          CHANNELS 3 Zrotation Xrotation Yrotation
          JOINT LeftWrist
          {
            OFFSET -0.000 -17.757 0.000
            CHANNELS 3 Zrotation Xrotation Yrotation
            End Site
            {
              OFFSET -0.000 -11.838 0.000
            }
          }
        }
      }
    }
    JOINT RightCollar
    {
      OFFSET 0 22.402 0
      CHANNELS 3 Zrotation Xrotation Yrotation
      JOINT RightShoulder
      {
        OFFSET -17.427 0.000 2.422
        CHANNELS 3 Zrotation Xrotation Yrotation
        JOINT RightElbow
        {
          OFFSET -0.000 -34.294 -0.000
          CHANNELS 3 Zrotation Xrotation Yrotation
          JOINT RightWrist
          {
            OFFSET -0.000 -17.757 -0.000
            CHANNELS 3 Zrotation Xrotation Yrotation
            End Site
            {
              OFFSET -0.000 -11.838 -0.000
            }
          }
        }
      }
    }
    JOINT Neck
    {
      OFFSET -0.128 22.499 2.441
      CHANNELS 3 Zrotation Xrotation Yrotation
      JOINT Head
      {
        OFFSET -0.000 7.753 0.000
        CHANNELS 3 Zrotation Xrotation Yrotation
        End Site
        {
          OFFSET -0.000 18.090 0.000
        }
      }
    }
  }
}
MOTION
Frames:	24
Frame Time:	0.0333333
20.9227 12.3032 -276.827 -0.572717 5.66487 1.51612 -14.3938 0.291368 0.068563 8.32166 -10.3191 7.97269 -5.85619e-08 -1.35199e-07 -4.20251e-07 -43.5266 -57.546 -37.5776 21.299 68.7181 7.53673 -1.25225e-07 9.88475e-07 9.54411e-07 0.424965 -5.67783 -1.46671 0 0 0 17.0907 11.7759 48.967 -39.0118 -18.918 -8.66911 -2.27546e-07 1.31122e-06 -8.29061e-08 0 0 0 -70.1236 -16.9795 16.4975 -103.806 -28.9434 -132.147 8.45973e-07 7.42132e-07 -2.18342e-07 -1.11941 5.93831 1.59308 -7.81775e-08 3.51033e-07 4.1039e-07 
20.4764 12.2642 -276.636 -0.318475 5.65004 1.51765 -13.5489 0.453309 0.0976756 6.73424 -9.74774 7.92643 1.73419e-08 7.64235e-08 3.11994e-07 -35.0202 -50.5164 -27.1756 20.8713 58.6234 7.51155 -6.19e-11 -8.45384e-09 -8.20121e-09 0.169793 -5.65644 -1.49355 0 0 0 18.5953 10.2219 44.7481 -41.4701 -29.7266 -17.4656 1.14671e-07 -1.10938e-06 -2.93818e-07 0 0 0 -68.5325 -17.0167 17.1031 -99.7335 -33.8378 -118.315 -1.70155e-07 5.01854e-07 -3.74727e-07 -1.00744 5.53008 1.60765 -6.36187e-08 -4.61236e-10 2.12851e-07 
19.9419 12.2317 -276.355 -0.569265 5.46022 1.56693 -12.5392 0.942592 0.190491 5.9255 -9.36992 7.94133 2.27558e-07 1.45208e-07 -6.11163e-07 -28.46 -43.0244 -19.4363 19.9129 48.5666 7.62395 -1.95569e-08 1.14986e-08 -1.41976e-07 0.421895 -5.47354 -1.51962 0 0 0 20.0172 8.32399 40.1629 -42.8838 -40.8651 -25.7189 -1.00828e-06 -1.59361e-06 5.36134e-07 0 0 0 -65.7528 -15.3163 17.6017 -96.7071 -39.376 -108.115 3.33043e-07 -9.94702e-07 1.14647e-06 -0.745599 5.46733 2.01101 -2.04426e-08 -1.86174e-09 4.28197e-07 
19.6274 12.3476 -276.104 0.185651 5.74318 1.9153 -12.7255 0.762588 0.150251 5.07194 -8.71157 7.53409 2.14997e-07 6.02614e-08 -3.19796e-07 -25.6623 -36.5983 -14.9217 19.1467 40.2235 7.51698 -1.00347e-07 1.70947e-08 2.78616e-07 -0.379073 -5.7337 -1.94359 0 0 0 22.3952 6.00056 33.8011 -41.4453 -53.8611 -31.1146 2.54491e-07 1.51972e-07 1.05984e-07 0 0 0 -63.9526 -14.2451 17.8716 -89.8018 -47.1891 -93.675 3.19748e-07 -3.59975e-07 -8.84294e-07 -0.483621 5.16062 2.33843 -3.63137e-08 -2.70484e-07 2.89099e-08 
19.0478 12.388 -275.629 1.01755 5.43816 2.19382 -12.9538 1.24117 0.232738 4.64859 -8.27857 7.24291 -8.7372e-09 -5.94876e-08 -2.29104e-07 -23.099 -29.7467 -10.6553 18.2702 31.329 7.14685 -1.99231e-08 3.24466e-19 -1.86623e-09 -1.23012 -5.39418 -2.3001 0 0 0 25.9246 3.50171 26.5547 -35.8125 -65.7526 -30.1434 0 0 0 0 0 0 -61.8129 -14.2609 18.6835 -80.5938 -53.6913 -80.2551 -6.35032e-08 1.53028e-07 -6.09797e-07 -0.521572 4.67515 2.41783 1.18557e-08 -1.38734e-07 -1.78484e-07 
18.114 12.5049 -275.108 1.15395 5.10903 2.26418 -12.1683 1.80526 0.306295 4.03155 -8.00585 7.23284 1.61108e-09 -8.85404e-09 1.11521e-07 -19.9406 -24.2209 -7.32865 16.6846 24.261 7.01987 7.87338e-09 3.6072e-07 7.10615e-07 -1.35993 -5.05823 -2.37574 0 0 0 28.763 1.37347 21.3222 -16.9814 -76.484 -14.5316 8.75779e-07 5.8518e-07 2.92061e-09 0 0 0 -58.4801 -13.8541 19.8222 -69.6327 -58.0765 -66.8949 -2.01236e-07 -3.34679e-08 -1.54535e-08 -0.89838 4.01973 2.55988 -2.88817e-08 2.12285e-07 1.39558e-07 
17.0192 12.5095 -274.548 0.587529 4.72161 2.42994 -10.7951 2.32793 0.349597 3.91115 -7.87741 7.2284 1.78287e-07 1.40938e-08 -3.08135e-07 -16.5251 -19.2393 -4.7911 15.003 17.6713 6.89301 4.03679e-09 -2.92369e-08 -1.26677e-07 -0.789611 -4.69211 -2.48652 0 0 0 32.2663 -0.867674 16.3359 38.1167 -81.0552 38.7101 1.25047e-07 2.48068e-08 4.86763e-07 0 0 0 -55.1715 -12.9437 20.7228 -54.4867 -60.502 -49.8409 -1.88259e-07 3.2815e-07 -6.5924e-07 -1.07887 4.40419 2.77175 4.2347e-08 -1.31337e-07 -1.65642e-07 
17.0192 12.5095 -274.548 0.587529 4.72161 2.42994 -10.7951 2.32793 0.349597 3.91115 -7.87741 7.2284 1.78287e-07 1.40938e-08 -3.08135e-07 -16.5251 -19.2393 -4.7911 15.003 17.6713 6.89301 4.03679e-09 -2.92369e-08 -1.26677e-07 -0.789611 -4.69211 -2.48652 0 0 0 32.2663 -0.867674 16.3359 38.1167 -81.0552 38.7101 1.25047e-07 2.48068e-08 4.86763e-07 0 0 0 -55.1715 -12.9437 20.7228 -54.4867 -60.502 -49.8409 -1.88259e-07 3.2815e-07 -6.5924e-07 -1.07887 4.40419 2.77175 4.2347e-08 -1.31337e-07 -1.65642e-07 
16.0853 12.5748 -274.24 0.118701 4.79628 2.66787 -9.96364 1.60068 0.225781 4.63441 -6.70725 7.21915 -5.55903e-08 3.90763e-08 -4.2298e-07 -14.1426 -15.8938 -3.39104 14.2435 12.9434 6.66777 -9.8267e-09 5.56949e-09 2.96623e-07 -0.342757 -4.78552 -2.68716 0 0 0 35.2121 -2.43005 13.2665 84.9529 -75.8186 84.6833 7.15284e-07 -9.69428e-08 -3.02734e-07 0 0 0 -52.097 -11.9478 21.4757 -39.224 -60.525 -33.5094 -9.6424e-08 -3.42827e-07 8.27968e-07 -0.899532 4.63664 3.00609 -1.07512e-16 1.38032e-07 8.92542e-08 
15.4337 12.7373 -273.954 0.863422 5.06256 2.8479 -10.911 -0.0553147 -0.00817443 5.84753 -3.96118 7.15158 9.22131e-08 -2.05806e-08 -1.13556e-07 -14.0424 -13.3756 -2.72018 14.4327 9.12712 6.55921 -4.72967e-08 -1.32738e-08 -5.41183e-07 -1.11785 -5.01265 -2.935 0 0 0 38.4283 -3.76077 10.9347 100.222 -68.5738 99.8828 9.0624e-07 -2.54508e-07 9.28409e-08 0 0 0 -49.3049 -11.4892 22.4615 -24.9971 -57.8025 -18.667 -1.94531e-07 -1.8766e-08 -1.42188e-07 -0.955754 4.58563 3.07756 1.44766e-08 4.25645e-07 -1.20921e-07 
14.4669 12.8142 -273.548 0.710587 4.97728 2.93073 -10.6606 -2.57134 -0.376071 6.98877 1.05089 7.19298 1.10146e-07 -1.23005e-07 -3.06511e-07 -12.9232 -11.3415 -2.10493 14.3448 6.25153 6.5998 1.55867e-07 -3.17919e-08 6.03802e-07 -0.967412 -4.93391 -3.00329 0 0 0 42.0765 -4.69444 9.41612 106.649 -61.6347 106.807 5.9876e-07 -2.59928e-07 1.23072e-06 0 0 0 -47.6324 -10.1608 22.3065 -10.6919 -56.0725 -5.34461 -7.45767e-07 -3.94367e-07 7.88115e-07 -0.97435 5.15689 3.19608 0 0 0 
13.5688 12.759 -273.364 1.00112 5.36983 3.01185 -11.2209 -7.13323 -1.07781 8.68051 8.49357 6.87854 5.05984e-08 -3.23695e-09 1.19665e-10 -12.8314 -9.78509 -1.75603 14.8078 2.88149 6.72536 1.06483e-07 -4.57947e-08 3.02481e-07 -1.28701 -5.30874 -3.11847 0 0 0 45.9142 -5.57453 8.28817 109.91 -55.7965 110.875 1.71985e-07 7.58407e-08 2.22273e-07 0 0 0 -45.5968 -8.28731 21.8137 -1.22184 -54.0632 3.16627 2.35425e-07 -8.09604e-07 -6.30926e-07 -1.23477 5.33448 3.34718 -5.21992e-08 -3.67763e-07 -1.0516e-07 
12.4949 12.5388 -273.11 0.408009 5.32238 3.19704 -10.7776 -12.4995 -1.87676 10.3216 17.1434 6.02289 -1.3012e-08 -1.32677e-07 -3.30396e-09 -11.6435 -7.65748 -1.27396 14.9287 -1.03255 6.95889 1.08011e-07 -8.14557e-09 -7.48219e-09 -0.706794 -5.29108 -3.24866 0 0 0 48.3569 -5.88122 7.93905 111.614 -49.7898 113.812 3.85219e-07 -4.57026e-07 -1.29418e-06 0 0 0 -43.9868 -6.61458 21.1449 5.98251 -51.5674 9.41312 6.40551e-07 3.05792e-07 1.55582e-06 -1.4278 5.46105 3.38509 1.01566e-08 2.64714e-09 -2.12569e-07 
11.5796 12.3907 -272.897 0.461158 4.81566 3.23499 -11.4285 -18.4454 -2.88736 12.3313 26.2489 4.73057 -1.47503e-08 -4.02796e-07 2.24584e-08 -10.9389 -5.76841 -0.867565 14.6859 -3.25876 7.18943 2.0744e-08 -4.86691e-08 -2.27943e-07 -0.734419 -4.7817 -3.28504 0 0 0 50.2526 -5.73962 8.02251 114.017 -45.8158 117.487 2.25718e-07 -8.16296e-08 1.46993e-06 0 0 0 -42.2686 -4.60642 20.0718 11.9966 -48.5671 14.4236 7.86812e-07 -3.92965e-07 1.50769e-06 -1.65758 5.93991 3.32007 7.19272e-08 -2.21012e-07 4.30574e-07 
10.5169 12.3035 -273.039 -0.11613 5.47087 3.18015 -11.3582 -28.2935 -4.40216 12.8613 38.6173 3.28986 1.37338e-08 -4.51357e-07 -1.1876e-07 -9.52927 -5.62374 -0.728764 14.4469 -5.00885 7.5091 3.91557e-08 -1.90298e-09 -2.19238e-08 -0.187943 -5.46888 -3.18358 0 0 0 51.3831 -5.34586 8.32071 114.735 -42.6286 119.339 -6.44424e-07 9.05107e-07 -7.03818e-07 0 0 0 -41.1545 -3.24476 19.2166 16.1224 -45.9186 17.6303 7.87889e-08 -7.79914e-07 6.29858e-07 -1.67106 5.29436 3.43258 1.65045e-08 -5.5301e-08 9.75794e-08 
9.72734 12.2009 -272.711 -0.310185 5.12059 3.31419 -11.6882 -36.8316 -5.94463 11.8486 49.3869 2.8848 1.11107e-08 5.92478e-07 5.41981e-07 -8.49172 -4.28129 -0.49924 13.9745 -6.53481 7.65113 -1.39517e-07 1.89344e-07 2.30529e-16 0.0140912 -5.12993 -3.29969 0 0 0 52.3434 -4.55282 8.8986 116.245 -40.668 121.859 -3.64874e-07 4.13726e-07 -1.48765e-06 0 0 0 -40.1332 -2.07903 18.4224 20.2385 -43.5989 20.6148 -4.11664e-07 8.26368e-07 -1.93978e-07 -1.62624 4.68886 3.61084 1.66344e-08 -1.39246e-07 -6.34837e-07 
9.06703 11.9833 -272.318 -0.531657 4.65483 3.52329 -12.1683 -45.2979 -7.6358 8.67872 58.6477 4.51252 4.78181e-08 5.27179e-07 -1.35319e-07 -6.92789 -3.39047 -0.322691 12.3991 -6.74095 7.47823 0 0 0 0.245732 -4.6786 -3.49164 0 0 0 52.7321 -3.37664 9.73082 117.339 -40.2786 123.432 3.60103e-07 1.58133e-07 -6.00242e-07 0 0 0 -39.7591 -0.227672 16.5297 25.776 -43.0745 24.9257 -4.12022e-07 -2.51451e-07 3.5793e-07 -1.71116 4.95058 3.59578 -7.46276e-09 6.2064e-08 2.12596e-07 
9.06703 11.9833 -272.318 -0.531657 4.65483 3.52329 -12.1683 -45.2979 -7.6358 8.67872 58.6477 4.51252 4.78181e-08 5.27179e-07 -1.35319e-07 -6.92789 -3.39047 -0.322691 12.3991 -6.74095 7.47823 0 0 0 0.245732 -4.6786 -3.49164 0 0 0 52.7321 -3.37664 9.73082 117.339 -40.2786 123.432 3.60103e-07 1.58133e-07 -6.00242e-07 0 0 0 -39.7591 -0.227672 16.5297 25.776 -43.0745 24.9257 -4.12022e-07 -2.51451e-07 3.5793e-07 -1.71116 4.95058 3.59578 -7.46276e-09 6.2064e-08 2.12596e-07 
8.52515 11.7356 -272.163 -0.514031 4.4886 3.50484 -13.3609 -54.4669 -9.77928 2.38843 65.8159 9.55487 -4.38559e-08 -1.49896e-08 2.47891e-07 -5.58324 -4.33654 -0.316625 10.6442 -3.9957 7.1346 2.52927e-07 -1.86788e-07 1.01146e-07 0.239697 -4.51152 -3.47525 0 0 0 51.4861 -2.68773 10.3404 118.476 -41.4045 124.318 -1.24015e-06 -5.81455e-07 7.39501e-07 0 0 0 -39.4564 0.735205 15.5487 30.1374 -41.2135 27.9833 5.25508e-07 9.87152e-07 -2.15182e-06 -1.4994 4.38985 3.79511 -6.86097e-08 -8.49872e-08 6.3314e-07 
8.06951 11.9486 -271.856 -0.50634 4.27771 3.72242 -15.4638 -63.1979 -12.7804 -7.63014 70.9787 18.3622 -2.48162e-08 -1.03527e-06 -5.46813e-07 -3.84358 -4.65346 -0.214305 8.0052 -2.01014 6.66134 -2.99569e-07 9.14474e-08 2.39165e-07 0.228457 -4.30146 -3.69493 0 0 0 49.1895 -1.01869 11.9084 119.516 -43.9934 124.746 -1.01754e-06 -1.04895e-08 1.06549e-06 0 0 0 -39.5297 2.49379 13.476 34.5144 -39.6107 31.2288 -1.47292e-07 -1.28127e-07 -1.27422e-08 -1.37163 4.67017 4.11659 -5.29409e-09 5.67125e-07 -9.00146e-08 
7.70075 11.9392 -271.726 -0.104082 4.69255 4.01401 -21.6511 -72.939 -19.4414 -22.335 74.5836 31.9645 2.50428e-07 1.84447e-08 -1.19984e-07 -3.57636 -5.5532 -0.211985 7.56329 -0.540731 6.20555 1.30169e-07 2.93221e-08 4.18806e-07 -0.22504 -4.68832 -4.01896 0 0 0 45.7289 0.2043 13.5783 118.249 -49.8496 121.8 -1.68992e-06 -5.70177e-07 -1.16139e-06 0 0 0 -40.2187 3.94974 11.6199 38.7815 -37.7423 34.2705 -2.13605e-07 -1.01094e-06 8.4358e-07 -1.65242 4.56251 4.41856 -2.8016e-08 7.29714e-08 5.51862e-07 
7.12215 11.8654 -271.374 -0.499449 4.56214 4.32777 -35.8906 -81.2744 -34.4495 -37.9548 76.4673 46.3625 2.96537e-07 -1.00103e-07 2.63091e-07 -2.43391 -4.98478 -0.113372 7.53077 -1.04789 5.98168 -7.89454e-09 3.75565e-08 -1.4312e-09 0.154623 -4.58674 -4.30169 0 0 0 41.4258 1.64231 16.0818 116.219 -57.8024 118.145 -1.07688e-06 -2.36679e-07 -8.88704e-07 0 0 0 -40.7899 5.40278 9.83512 42.3171 -36.4771 36.9627 3.51068e-08 4.11721e-07 4.30051e-08 -1.72942 4.45734 4.58336 -1.04137e-07 4.22533e-07 5.62312e-07 
6.66203 11.881 -271.014 -0.755579 4.06618 4.51487 -96.7892 -86.2213 -95.8592 -58.4002 77.3642 65.5012 -9.0996e-08 1.47832e-10 -2.641e-07 -1.76605 -3.90115 -0.0560921 8.467 -1.84251 5.96408 1.98963e-07 -9.05861e-08 1.57283e-16 0.434551 -4.11282 -4.47244 0 0 0 37.3124 2.22564 18.1962 105.931 -67.2572 106.539 -8.62688e-07 9.39482e-07 6.3944e-07 0 0 0 -41.1748 6.43277 8.60061 44.1639 -35.2153 38.1987 -1.11947e-07 1.7933e-07 2.12364e-08 -2.09672 4.38298 4.75033 -8.05073e-08 -2.74058e-07 -1.00085e-06 
6.66203 11.881 -271.014 -0.755579 4.06618 4.51487 -96.7892 -86.2213 -95.8592 -58.4002 77.3642 65.5012 -9.0996e-08 1.47832e-10 -2.641e-07 -1.76605 -3.90115 -0.0560921 8.467 -1.84251 5.96408 1.98963e-07 -9.05861e-08 1.57283e-16 0.434551 -4.11282 -4.47244 0 0 0 37.3124 2.22564 18.1962 105.931 -67.2572 106.539 -8.62688e-07 9.39482e-07 6.3944e-07 0 0 0 -41.1748 6.43277 8.60061 44.1639 -35.2153 38.1987 -1.11947e-07 1.7933e-07 2.12364e-08 -2.09672 4.38298 4.75033 -8.05073e-08 -2.74058e-07 -1.00085e-06 
